<svg> 
<symbol id="logo" width="632" height="191" viewBox="0 0 632 191" fill="currentColor" xmlns="http://www.w3.org/2000/svg">
	<path d="M492.559 6.118C492.259 7.42799 490.245 16.825 488.084 27C474.075 92.954 471.678 103.582 470.648 104.3C470.017 104.739 466.738 104.845 463.363 104.533C458.305 104.067 457.118 104.25 456.61 105.574C456.271 106.458 456.247 107.59 456.556 108.09C456.865 108.591 462.899 109 469.965 109C482.32 109 482.793 108.923 482.29 107C481.933 105.636 482.259 105 483.316 105C485.236 105 484.976 105.917 490.408 80C492.887 68.175 497.412 46.826 500.466 32.558C503.519 18.29 505.669 6.269 505.245 5.845C504.82 5.42 501.915 4.772 498.789 4.405C493.375 3.769 493.078 3.85 492.559 6.118ZM128.532 11.123C128.055 12.433 125 26.651 125 27.565C125 27.804 127.863 28 131.362 28H137.724L139.282 20.25C140.138 15.988 140.538 12.19 140.17 11.812C139.801 11.433 137.145 10.814 134.267 10.435C130.258 9.908 128.917 10.069 128.532 11.123ZM283.529 31.267C283.311 31.945 282.37 36.181 281.437 40.681L279.741 48.862L273.033 48.3C264.897 47.617 260.152 49.002 255.837 53.317C251.197 57.957 249.62 62.399 244.944 84C242.622 94.725 240.223 103.852 239.611 104.283C239 104.714 235.575 104.939 232 104.783C225.921 104.518 225.479 104.646 225.18 106.75C224.862 108.991 224.916 109 238.819 109H252.777L253.458 105.25C256.113 90.627 261.561 68.826 263.534 64.932C267.652 56.807 275.203 52.423 283.768 53.184L287.329 53.5L289.594 43C290.839 37.225 291.552 32.222 291.179 31.882C289.671 30.51 283.92 30.048 283.529 31.267ZM138.76 32.638C138.487 33.112 137.71 35.863 137.032 38.75L135.801 44H128.959C125.197 44 121.89 44.369 121.611 44.82C120.457 46.688 113.94 80.737 114.209 83.5C114.494 86.433 114.622 86.5 119.983 86.5H125.465L129.199 68.5C131.253 58.6 132.948 50.387 132.967 50.25C132.985 50.113 135.183 50 137.851 50C142.607 50 142.767 49.898 146.076 44.75C149.802 38.955 151.333 34.926 150.224 33.836C149.075 32.705 139.309 31.685 138.76 32.638ZM254.459 33.067C253.383 34.808 254.608 35.177 255.98 33.524C256.769 32.574 256.845 32 256.181 32C255.597 32 254.821 32.48 254.459 33.067ZM314 33.059C314 33.641 314.45 33.84 315 33.5C315.55 33.16 316 32.684 316 32.441C316 32.198 315.55 32 315 32C314.45 32 314 32.477 314 33.059ZM356.219 33.75C358.847 36.759 360.282 42.971 359.717 48.896C358.875 57.731 348.92 103.414 347.647 104.283C347.016 104.714 343.575 104.939 340 104.783C333.921 104.518 333.479 104.646 333.18 106.75C332.89 108.798 333.266 109 337.365 109C339.843 109 343.008 108.567 344.399 108.038C346.019 107.422 347.143 107.422 347.524 108.038C347.851 108.567 350.979 109 354.476 109H360.834L361.975 103.75C368.116 75.481 371.996 55.1 371.978 51.208C371.954 46.064 369.387 39.48 366.355 36.788C364.286 34.951 357.828 32 355.877 32C355.091 32 355.206 32.591 356.219 33.75ZM208.397 37.434C213.342 43.911 215.145 50.28 215.094 61.082C215.069 66.435 214.574 70.808 213.903 71.617C212.979 72.73 207.613 73 186.378 73H160V76.05C160 82.166 165.274 88 170.804 88C172.484 88 172.65 87.417 172.226 83L171.746 78H197.305C220.79 78 222.906 77.858 223.367 76.25C223.643 75.287 224.605 70.775 225.506 66.223C227.019 58.572 227.02 57.575 225.515 53.045C222.605 44.284 216.772 37.892 208.553 34.458L204.989 32.969L208.397 37.434ZM441.116 35.942C445.15 41.4 444.878 49.39 439.902 71.5C437.285 83.128 435.602 93.136 435.563 97.294C435.488 105.366 435.731 105.226 422.5 104.794C413.962 104.515 413.483 104.381 413.173 102.192C412.993 100.923 412.543 100.046 412.173 100.243C403.108 105.075 401.418 105.5 391.25 105.5C385.612 105.5 380.999 105.603 381 105.73C381 105.856 382.899 106.928 385.221 108.113C390.449 110.78 399.878 111.624 407.067 110.069C410.155 109.4 420.056 108.922 430.009 108.961L447.519 109.03L447.625 103.265C447.683 100.094 449.631 88.95 451.953 78.5C456.817 56.612 457.403 48.087 454.399 42.943C452.439 39.587 445.786 34.84 441.146 33.486L438.792 32.799L441.116 35.942ZM70.7939 37.418C75.4389 42.708 77.9999 50.725 77.9999 59.972C77.9999 64.316 77.5609 69.024 77.0249 70.435L76.0499 73H49.5249H22.9999V75.935C22.9999 77.549 23.4389 80.024 23.9749 81.434C25.1049 84.405 30.4649 87.991 33.7849 87.996C35.7349 87.999 35.9179 87.716 35.0349 86.066C34.4659 85.002 33.9999 82.759 33.9999 81.082V78.032L61.2439 77.766L88.4879 77.5L89.3379 71.5C90.3029 64.681 88.8629 53.621 86.3639 48.65C84.1349 44.218 78.1689 38.176 73.7899 35.915C68.3379 33.101 67.4119 33.566 70.7939 37.418ZM406.942 42.926C402.051 44.452 399.822 46.181 398.421 49.535C397.039 52.843 396.881 52.914 390.256 53.204C384.319 53.464 383.5 53.737 383.5 55.455C383.5 58.248 389.427 59.286 400.75 58.476C407.221 58.012 410 57.431 410 56.542C410 54.017 414.19 50.023 418.054 48.866C420.224 48.215 422 47.315 422 46.865C422 44.119 411.729 41.432 406.942 42.926ZM37.9139 44.956C33.8099 46.199 30.1989 48.942 28.0179 52.472C26.9079 54.267 25.9999 56.02 25.9999 56.368C25.9999 56.716 29.0949 57 32.8779 57C37.9129 57 40.1049 56.579 41.0609 55.427C42.8549 53.265 49.4619 50 52.0429 50C55.0859 50 54.0059 47.818 49.9399 45.752C46.3259 43.915 42.2409 43.644 37.9139 44.956ZM92.6669 44.667C92.2999 45.033 91.9999 46.188 91.9999 47.233C91.9999 50.172 97.3919 49.261 97.8199 46.25C98.0749 44.452 97.6559 44 95.7359 44C94.4149 44 93.0329 44.3 92.6669 44.667ZM174.604 44.986C171.17 46.076 166.392 50.408 164.385 54.25L162.949 57H170.092C176.577 57 177.546 56.728 180.597 54.049C182.445 52.426 185.542 50.801 187.479 50.438C191.524 49.679 191.782 49.017 189.01 46.509C186.714 44.431 178.941 43.609 174.604 44.986ZM320.502 46.575C312.441 50.779 310.215 55.719 304.991 81C302.662 92.275 300.314 102.345 299.774 103.379C298.921 105.01 297.947 105.189 292.371 104.742C286.775 104.293 285.818 104.471 284.932 106.128C283.465 108.868 284.754 109.103 299.46 108.781L312.313 108.5L316.62 88C318.988 76.725 321.641 65.623 322.515 63.329C324.19 58.935 331.889 51 334.478 51C336.769 51 336.314 49.392 333.365 47.073C330.206 44.588 324.721 44.376 320.502 46.575ZM405.514 72.599C399.148 73.467 394.637 74.627 393.068 75.798C390.352 77.826 388.888 81.857 389.717 85.027C390.382 87.57 394.893 90 398.95 90C401.63 90 402 89.658 402 87.174C402 83.462 405.403 80.368 410.828 79.15C413.208 78.615 415.341 77.992 415.567 77.766C416.479 76.854 417.19 71.008 416.375 71.118C415.894 71.183 411.006 71.849 405.514 72.599ZM70.2639 88.187C66.5129 94.833 61.3639 99.485 54.0459 102.841C46.8519 106.139 29.1829 107.135 22.0389 104.644C15.0559 102.209 16.1279 103.46 24.6229 107.658L33.5 111L45.9689 111.5C59.2919 111.5 59.6649 111.44 66.2179 108.213C70.3339 106.187 74.4319 103.18 76.9029 100.373C81.6059 95.03 86.3779 85.978 85.1439 84.744C84.6709 84.271 81.8199 83.63 78.8069 83.32L73.3299 82.754L70.2639 88.187ZM207.739 87.919C203.537 95.4 196.038 101.599 188.298 103.99C180.501 106.398 166.62 106.693 159.659 104.598C157.097 103.827 155 103.358 155 103.556C155 103.754 156.912 105.009 159.25 106.346C167.839 111.257 175.98 111.854 197.566 109.155C209.097 107.714 218.506 99.467 220.738 88.847C221.715 84.198 221.713 84.193 218.733 83.597C211.903 82.231 210.659 82.72 207.739 87.919ZM126.694 92.625C126.409 93.656 125.655 96.803 125.019 99.618L123.864 104.736L116.682 105.386C112.732 105.743 107.25 105.615 104.501 105.1C101.751 104.586 99.3649 104.302 99.1979 104.468C99.0309 104.635 100.606 105.836 102.697 107.136C106.228 109.331 107.512 109.5 120.667 109.5C128.459 109.5 135.104 109.231 135.433 108.901C136.299 108.035 139.438 93.104 138.873 92.54C138.611 92.278 135.881 91.768 132.806 91.407C127.874 90.827 127.153 90.971 126.694 92.625ZM495.182 114.093C496.876 118.952 495.453 126.696 490.989 136.91C485.813 148.753 482.702 153.268 474.645 160.629C467.443 167.21 451.392 176.631 456 171.573C457.879 169.51 456.335 170.187 449.783 174.297C444.989 177.305 439.87 180.067 438.407 180.434L435.747 181.102L438.048 183.551C441.077 186.776 442.764 186.65 450.775 182.602C469.347 173.217 493.831 150.092 500.646 135.5C503.555 129.271 503.873 119.711 501.296 115.973C497.443 110.383 493.462 109.159 495.182 114.093ZM350.5 112.737C349.4 113.014 347.375 113.712 346 114.287C343.633 115.278 343.739 115.371 348 116.041C352.639 116.771 355 115.873 355 113.378C355 111.974 354.056 111.839 350.5 112.737ZM567.832 113.355C562.663 114.969 562.055 116 566.274 116C568.259 116 570.166 116.46 570.513 117.021C570.882 117.619 571.907 117.102 572.98 115.776C576.04 111.998 574.5 111.273 567.832 113.355ZM418.697 126.25C411.912 136.782 402.984 152.607 398.99 161.179C396.685 166.126 395.959 168.978 396.189 172.179C396.477 176.177 396.727 176.522 399.53 176.797C402.366 177.075 402.64 176.795 403.808 172.43C405.766 165.106 412.094 152.688 421.421 137.864C429.97 124.276 431.077 121.477 428.8 119.2C426.137 116.537 423.988 118.036 418.697 126.25ZM336.731 128.176C318.966 160.949 313.645 176.134 318.934 178.965C322.135 180.678 324 180.21 324 177.694C324 173.45 328.182 162.942 335.952 147.657C340.19 139.321 344.849 130.614 346.304 128.309C348.819 124.326 349.139 124.148 352.725 124.721C358.734 125.681 359.403 125.597 359.769 123.835C360.191 121.8 358.71 121.348 348.871 120.505L341.243 119.852L336.731 128.176ZM557.516 124.564C551.662 134.552 540.229 157.824 538.169 163.944C535.398 172.177 535.314 177.562 537.934 178.965C541.475 180.86 542.715 180.181 543.387 175.982C543.74 173.772 545.727 168.035 547.801 163.232C551.863 153.829 566.617 125.345 567.788 124.645C568.18 124.411 570.677 124.555 573.337 124.965C577.104 125.545 578.295 125.395 578.72 124.287C579.65 121.865 577.803 121.159 568.87 120.526L560.241 119.913L557.516 124.564ZM273.767 123.868C273.999 125.445 273.41 128.24 272.459 130.08C270.52 133.829 269.688 140.689 271.068 141.542C271.564 141.849 273.852 140.345 276.152 138.199C279.939 134.667 280.333 133.846 280.333 129.494C280.333 125.7 279.854 124.3 278.056 122.844C274.728 120.149 273.272 120.496 273.767 123.868ZM387.579 130.218C382.164 140.338 381.818 140.291 393.319 131C396.382 128.525 398.913 126.007 398.944 125.405C399.02 123.921 395.679 120.998 393.921 121.01C393.14 121.015 390.286 125.159 387.579 130.218ZM624.18 122.283C623.595 122.988 622.673 124.729 622.133 126.15C621.273 128.413 621.523 129.011 624.144 130.948C627.945 133.759 629.281 133.208 630.954 128.139C632.044 124.837 632.058 123.774 631.027 122.532C629.48 120.668 625.637 120.528 624.18 122.283ZM321.5 124.861C307.667 131.453 298.551 140.903 290.118 157.392C286.392 164.678 284.116 172.45 285.348 173.681C285.649 173.982 287.477 173.25 289.41 172.056C291.958 170.481 294.223 167.421 297.641 160.939C303.684 149.478 313.118 137.565 320.882 131.591C326.253 127.458 329 124.404 329 122.566C329 121.533 327.556 121.975 321.5 124.861ZM471.5 122.491C470.95 122.675 469.275 123.095 467.779 123.424C464.124 124.229 463.576 125.515 460.474 140.547C458.706 149.116 456.82 155.272 454.901 158.735C450.2 167.218 450.999 167.698 460.003 161.803C464.544 158.831 465.039 158.113 466.05 153.033C469.674 134.84 471.299 129.547 474.132 126.714C475.71 125.137 477 123.431 477 122.923C477 122.045 473.632 121.78 471.5 122.491ZM540.41 124.985C531.418 129.527 521.449 137.527 516.926 143.833C511.298 151.679 504.977 164.753 504.272 170.006L503.684 174.389L508.092 171.825C511.607 169.781 513.261 167.79 516.257 161.998C521.501 151.859 527.964 143.1 535.217 136.301C544.613 127.494 548 123.951 548 122.929C548 121.453 546.709 121.803 540.41 124.985ZM251.348 128.323C244.025 133.714 235.66 143.009 232.768 148.968C231.055 152.499 230.562 155.34 230.535 161.832C230.502 169.74 230.643 170.287 233.306 172.582C234.849 173.912 236.424 174.997 236.806 174.994C237.188 174.99 237.543 171.053 237.595 166.244C237.705 156.003 240.077 148.322 245.614 140.275C249.534 134.578 256.983 129 260.671 129C261.952 129 263 128.576 263 128.057C263 127.095 259.099 124 257.888 124C257.52 124 254.578 125.945 251.348 128.323ZM610.767 128.04C608.739 129.713 606.151 132.383 605.018 133.975L602.956 136.87L607.617 144.074C613.095 152.542 614.049 157.498 611.626 164.904C610.732 167.638 610 170.769 610 171.861C610 174.512 605.733 179.454 602.17 180.93C600.311 181.699 594.821 182.01 586.595 181.809C574.397 181.512 573.976 181.569 576.04 183.237C581.833 187.918 596.306 188.042 605.61 183.49C612.816 179.964 618.557 173.294 619.942 166.837C621.38 160.132 620.239 156.313 614.016 147C607.109 136.662 607.526 132.804 615.865 129.897C618.958 128.819 619.026 128.686 617.396 126.885C615.189 124.446 615.111 124.46 610.767 128.04ZM448.131 127.342C447.519 128.08 447.313 128.98 447.675 129.342C448.97 130.636 450.776 129.966 451.29 128C451.893 125.693 449.852 125.268 448.131 127.342ZM397.012 138.452C393.444 141.425 390.388 143.721 390.221 143.555C390.055 143.388 390.938 141.508 392.185 139.376L394.45 135.5L389.261 139.813C382.883 145.114 375.79 152.912 373.907 156.692C373.133 158.246 369.879 163.883 366.676 169.219C361.168 178.396 360.925 179.071 362.19 181.71C364.771 187.096 366.757 185.447 375.629 170.552C382.035 159.795 385.865 154.647 392.366 148.052C397.002 143.348 401.528 138.038 402.423 136.25C403.319 134.462 403.927 133.01 403.776 133.023C403.624 133.036 400.58 135.478 397.012 138.452ZM584.913 160.192L574.326 171.079L577.698 174.039C582.004 177.82 583.373 177.814 581.203 174.024L579.5 171.048L588.767 161.738C596.684 153.785 597.849 152.201 596.767 150.867C595.668 149.512 594.099 150.746 584.913 160.192ZM440.932 161.604C435.704 167.047 422.107 177.042 416.5 179.563C412.079 181.551 396.395 183.859 392.25 183.132C390.103 182.755 390.882 184.877 393.527 186.609C398.021 189.554 408.503 188.069 418.624 183.054C424.267 180.258 427.399 178.081 427.98 176.552C428.469 175.267 430.056 173.952 431.578 173.57C435.815 172.506 442.759 166.261 444.048 162.355C444.681 160.436 445.011 158.678 444.781 158.448C444.551 158.218 442.819 159.638 440.932 161.604ZM268.533 170.55C261.812 175.921 253.743 179.047 242.956 180.459C237.205 181.211 231.196 181.576 229.601 181.268C225.722 180.521 227.016 182.691 231.59 184.602C236.617 186.703 245.539 186.297 253.113 183.623C261.694 180.594 270.826 174.541 271.627 171.352C272.479 167.957 271.95 167.82 268.533 170.55ZM302.5 172.644C300.85 174 297.813 175.994 295.75 177.075C292.689 178.68 292 178.772 292 177.578C292 176.447 291.038 176.666 287.75 178.546C285.413 179.882 282.739 180.981 281.809 180.988C279.334 181.006 278.752 182.609 280.562 184.419C283.964 187.821 294.059 185.028 301.748 178.558C304.317 176.397 306.796 171.448 305.799 170.472C305.634 170.311 304.15 171.289 302.5 172.644ZM519 174.5C514.601 177.873 511 178.998 511 177C511 176.45 508.862 177.109 506.25 178.463C503.638 179.817 500.651 181.177 499.614 181.484C497.798 182.021 497.795 182.116 499.519 184.021C502.913 187.772 509.456 186.41 518.869 179.995C522.947 177.215 523.997 175.937 523.998 173.75C523.999 172.238 523.888 171.011 523.75 171.025C523.612 171.039 521.475 172.603 519 174.5ZM348.497 175.584C340.751 181.139 334.57 183.942 328.793 184.519C325.882 184.809 321.25 185.381 318.5 185.789L313.5 186.53L316.052 188.251C317.456 189.197 320.019 190.254 321.747 190.599C329.609 192.172 354 179.953 354 174.443C354 173.099 353.886 172 353.747 172C353.608 172 351.245 173.613 348.497 175.584ZM564.45 177.929C562.014 180.311 552.678 184.063 548.33 184.408C540.027 185.066 534 186.235 534 187.187C534 187.69 535.654 188.793 537.676 189.638C543.936 192.253 553.327 189.849 564.264 182.83C568.093 180.373 568.818 179.486 567.901 178.381C566.557 176.761 565.752 176.656 564.45 177.929Z" fill="#433D3D"/>
	<path d="M468.79 7.25C467.972 11.238 463.139 34.192 458.049 58.261C452.959 82.329 449.051 102.691 449.366 103.511C449.822 104.699 452.057 105 460.41 105C467.063 105 471.134 104.591 471.574 103.88C472.639 102.156 493.862 1.602 493.341 0.75C493.088 0.338 487.796 0 481.579 0H470.276L468.79 7.25ZM106.402 6.159C106.008 6.796 104.744 11.858 103.593 17.409L101.5 27.5L95.0398 28L88.5788 28.5L86.7818 35.5C85.7938 39.35 85.1988 43.063 85.4608 43.75C85.7708 44.563 88.0848 45 92.0758 45C96.8328 45 98.0968 45.305 97.6928 46.357C97.4068 47.103 95.2648 57.127 92.9328 68.632C88.0798 92.579 88.1328 95.503 93.5108 100.575C97.5368 104.372 103.526 106.035 112.693 105.9C124.024 105.734 124.09 105.687 126.155 96.088C127.143 91.492 127.698 87.321 127.387 86.818C127.077 86.315 124.882 86.195 122.51 86.551C116.849 87.4 114.002 86.441 113.992 83.683C113.987 82.482 115.668 73.305 117.726 63.289L121.47 45.078L128.484 44.789L135.498 44.5L136.8 40.514C137.517 38.322 138.366 34.609 138.687 32.264L139.272 28H132.283H125.294L127.276 18.058C128.367 12.591 128.99 7.416 128.661 6.558C128.172 5.284 126.151 5 117.59 5C110.732 5 106.871 5.4 106.402 6.159ZM30.2858 27.397C16.1018 32.012 6.02877 43.594 1.85977 60.082C-2.91623 78.968 2.69277 95.757 16.0378 102.519C26.5008 107.822 44.6378 107.827 55.4998 102.531C61.5798 99.566 67.9558 93.187 71.4218 86.601C75.8748 78.139 75.7328 77.999 62.7498 78.007L51.4998 78.014L49.1748 81.429C41.5538 92.621 22.9998 88.808 22.9998 76.05V73H49.8828H76.7668L77.3698 70.75C77.7008 69.512 77.9788 64.579 77.9858 59.788C78.0098 44.518 73.0408 35.607 61.2718 29.813C55.2708 26.859 53.6248 26.511 44.5578 26.281C38.0868 26.117 32.9968 26.514 30.2858 27.397ZM167.467 27.336C147.871 33.774 134.193 58.063 137.966 79.725C140.739 95.649 150.542 104.518 167.5 106.446C180.867 107.966 196.837 102.734 203.356 94.7C207.487 89.608 212.296 80.289 211.477 78.963C211.15 78.433 206.012 78 200.06 78H189.237L186.567 81.501C182.691 86.582 178.752 88.31 172.268 87.772C165.448 87.207 161.416 83.628 160.413 77.25L159.744 73H186.813C207.168 73 214.071 72.695 214.643 71.769C215.061 71.092 215.41 66.029 215.418 60.519C215.431 51.607 215.117 49.808 212.574 44.238C209.334 37.139 203.999 31.779 197.122 28.715C191.281 26.111 173.684 25.293 167.467 27.336ZM265.591 27.573C263.441 28.361 260.139 30.182 258.254 31.62L254.826 34.234L255.163 31.367L255.5 28.5L244.325 28.218L233.151 27.936L231.583 35.218C225.096 65.345 218 100.52 218 102.551V105H228.941C234.959 105 240.136 104.589 240.446 104.088C240.756 103.586 242.821 94.698 245.034 84.338C249.532 63.283 252.381 56.264 258.346 51.543C262.001 48.652 262.637 48.503 271.124 48.562C279.353 48.619 280.093 48.461 280.527 46.562C280.787 45.428 281.667 41.575 282.485 38C283.302 34.425 283.977 30.262 283.985 28.75L284 26L276.75 26.07C272.762 26.109 267.741 26.785 265.591 27.573ZM325.703 27.385C323.614 28.162 320.138 29.966 317.978 31.396L314.051 33.995L314.651 30.997L315.25 28H304.184C298.098 28 292.866 28.407 292.559 28.905C291.445 30.706 276.965 103.134 277.534 104.055C277.855 104.575 283.011 105 288.992 105C298.475 105 299.934 104.776 300.405 103.25C300.702 102.288 302.295 94.975 303.947 87C310.447 55.609 312.384 50.929 320.498 47.001C326.014 44.331 331.548 44.775 334.27 48.105C336.352 50.653 336.553 49.147 329.957 80.444C327.297 93.063 325.346 103.75 325.62 104.194C326.334 105.35 347.763 105.193 348.484 104.026C349.8 101.896 359.114 56.023 359.668 48.938C360.432 39.181 358.19 33.478 351.974 29.364C348.277 26.917 346.67 26.546 338.635 26.278C332.54 26.075 328.236 26.443 325.703 27.385ZM398.41 27.085C388.256 29.491 378.026 39.016 376.424 47.555C375.289 53.606 375.891 54.002 386.219 53.985C396.202 53.968 397.381 53.622 398.382 50.408C399.603 46.491 403.641 43.741 408.913 43.234C417.852 42.375 422 44.665 422 50.457C422 55.015 418.328 56.594 404.467 58C391.022 59.363 386.049 60.435 380.664 63.133C372.265 67.342 367.367 74.103 366.322 82.931C364.091 101.769 386.734 112.905 407.182 103.026C411.239 101.066 412.929 101.432 412.985 104.283C412.993 104.713 418.062 104.938 424.248 104.783L435.497 104.5L435.652 98C435.737 94.425 437.471 84.075 439.505 75C446.004 46.008 446.039 40.852 439.784 34.316C434.28 28.566 428.1 26.62 414.5 26.352C407.9 26.223 400.66 26.553 398.41 27.085ZM50.6398 46.168C53.1108 47.383 54.9998 51.013 54.9998 54.547V57H40.4738H25.9488L27.4378 54.119C29.3608 50.401 34.4208 46.161 37.8268 45.412C39.2968 45.089 40.9498 44.67 41.4998 44.481C42.9458 43.983 48.1478 44.943 50.6398 46.168ZM185.259 45.055C189.364 46.195 191.431 48.729 192.353 53.75L192.95 57H178.475C168.192 57 164 56.665 164 55.844C164 54.097 168.786 48.185 171.291 46.84C173.315 45.752 178.062 44.344 180.5 44.108C181.05 44.055 183.192 44.481 185.259 45.055ZM415.978 75.683C413.899 82.185 411.129 85.759 406.394 88.052C398.228 92.005 390 89.141 390 82.345C390 76.741 395.79 73.114 405 72.948C406.925 72.913 410.3 72.543 412.5 72.125C414.7 71.707 416.657 71.477 416.85 71.615C417.042 71.753 416.65 73.584 415.978 75.683ZM481.822 105.507C481.449 105.882 482.01 107.609 483.068 109.344C484.406 111.539 484.99 114.328 484.984 118.5C484.959 137.313 472.487 155.644 453.007 165.501L447.515 168.28L451.354 164.029C456.364 158.484 457.606 155.308 461.065 139.199C463.926 125.873 464.644 124.098 468.5 120.835C469.931 119.624 470.194 118.83 469.426 118.047C468.65 117.256 464.557 117.617 454.634 119.352C447.089 120.671 440.654 122.013 440.334 122.332C440.015 122.652 440.032 123.641 440.373 124.529C440.884 125.861 441.933 126.027 446.339 125.477L451.684 124.809L450.054 131.285C448.029 139.331 444.783 144.331 435.091 154.336C421.707 168.151 407.363 177.4 400.236 176.81L396.5 176.5L396.643 171.179C396.821 164.566 404.179 149.226 415.438 132C419.572 125.675 422.964 119.52 422.977 118.321C423.001 116.086 420.624 113 418.879 113C415.896 113 406.853 119.313 391.009 132.456L382.518 139.5L385.437 134.5C387.042 131.75 389.174 128.15 390.174 126.5C391.174 124.85 391.994 122.557 391.996 121.405C392.004 117.248 385.654 114.232 383.248 117.25C382.7 117.938 379.974 123.45 377.191 129.5C372.607 139.462 371.157 141.531 361.815 151.43C344.428 169.852 331.346 178.969 322.269 178.99C318.577 178.999 317.958 178.679 317.405 176.48C316.017 170.947 320.857 158.38 333.293 135.228L341.496 119.957L347.248 120.608C352.569 121.21 353 121.107 353 119.236C353 117.04 351.206 116 347.418 116C344.48 116 344.448 115.628 347.033 111.447C348.24 109.494 348.667 107.912 348.084 107.552C346.172 106.37 337.917 109.268 335.302 112.039C333.514 113.933 331.222 115.04 328.127 115.504C313.097 117.758 301.868 125.644 277 151.412C272.325 156.257 265.772 162.175 262.438 164.564C254.909 169.959 244.411 174.998 240.7 174.999C235.947 175.001 232.193 172.377 230.934 168.173C228.553 160.228 233.368 142.94 240.601 133.456C244.29 128.62 251.181 124.727 256.054 124.727C261.528 124.727 263 126.295 263 132.122C263 136.233 263.296 137 264.884 137C265.92 137 268.395 135.199 270.384 132.997C275.882 126.911 275.29 119.753 269.02 116.51C264.397 114.119 259.883 114.693 251.905 118.684C234.451 127.416 217 151.365 217 166.587C217 177.444 221.654 181.505 234 181.423C244.921 181.349 255.822 176.278 270.939 164.239C273.867 161.907 274.258 161.798 273.567 163.5C271.92 167.559 270.83 174.188 271.422 176.546C271.757 177.882 273.135 179.697 274.483 180.581C279.648 183.965 289.229 179.642 302.102 168.119L307.704 163.104L306.219 168.438C304.407 174.949 305.22 180.311 308.521 183.612C310.497 185.588 311.91 185.996 316.705 185.976C326.807 185.935 337.25 180.423 353.097 166.768C357.719 162.785 360.246 161.038 358.714 162.884C353.985 168.58 352.965 171.291 354.061 175.258C356.388 183.686 359.318 182.367 366.614 169.603C374.799 155.286 379.74 148.647 387.202 141.94C397.287 132.875 406.129 125.796 406.679 126.346C407.272 126.939 404.102 133.173 397.376 144.637C390.159 156.941 384.068 169.807 383.341 174.286C381.535 185.412 395.456 187.115 412.824 177.892C422.605 172.698 430.098 166.801 439.172 157.155L446.699 149.154L445.782 154.327C445.277 157.172 443.846 161.751 442.601 164.501C440.29 169.61 436.871 172.196 430.75 173.467C427.21 174.202 427.271 175.927 430.962 179.463L433.924 182.301L438.712 180.523C448.323 176.954 462.953 166.209 476.073 153.081C486.552 142.595 489.278 139.22 492.443 132.814C495.926 125.766 496.206 124.58 495.821 118.534C495.458 112.83 494.996 111.535 492.401 108.94C489.531 106.069 483.279 104.04 481.822 105.507ZM559.754 108.599C557.016 109.441 554.358 111.051 553.47 112.405C552.329 114.147 550.628 114.924 546.868 115.423C539.71 116.373 534.684 118.521 525.463 124.571C501.368 140.379 482.789 172.565 493.262 180.354C495.77 182.22 496.446 182.296 500.617 181.18C506.468 179.615 512.858 175.322 520.705 167.686L526.911 161.646L525.389 166.573C523.182 173.714 524.022 180.762 527.427 183.691C532.912 188.409 545.441 186.058 557.435 178.06L563.37 174.102L567.125 177.494C575.724 185.263 594.147 183.905 604.564 174.735C610.209 169.766 612.948 164.22 612.978 157.7C613.002 152.483 611.749 149.51 605.855 140.805C599.574 131.526 601.161 126.593 610.846 125.294C613.956 124.877 615.206 125.206 616.884 126.884C619.827 129.827 620.667 129.573 622.98 125.04C625.543 120.016 625.523 118.35 622.886 116.939C619.369 115.057 612.608 116.746 606.004 121.156C599.247 125.668 596.07 129.353 593.201 136.001C590.683 141.838 572.455 160.997 561.668 169.143C551.541 176.792 546.3 179.21 540.728 178.806C536.891 178.528 536.469 178.232 536.169 175.6C535.446 169.266 541.058 155.458 554.213 131.199L560.341 119.899L565.549 120.549C569.027 120.984 570.993 120.82 571.465 120.056C572.58 118.252 570.033 116 566.878 116C563.696 116 563.26 114.562 565.532 111.559C567.329 109.183 567.436 106.976 565.75 107.07C565.063 107.108 562.364 107.796 559.754 108.599ZM330 120.416C330 121.112 319.644 139.128 315.816 145.092C308.952 155.786 290.753 173 286.311 173C284.277 173 285.347 168.412 289.487 159.378C297.4 142.114 312.173 125.763 323.665 121.547C327.592 120.107 330 119.677 330 120.416ZM545.914 125.75C531.699 151.032 526.279 158.028 513.101 168.106C503.299 175.602 502.073 174.662 506.666 163.171C514.105 144.557 530.319 125.875 542.953 121.356C549.078 119.166 549.371 119.6 545.914 125.75ZM601.793 163.514C602.153 167.865 601.843 169.033 599.627 171.666C596.044 175.925 592.081 177.337 585.295 176.775C580.201 176.352 579.252 175.9 576.3 172.485C574.485 170.385 573 168.117 573 167.445C573 166.772 577.583 161.464 583.185 155.648L593.369 145.074L597.37 151.754C600.24 156.545 601.491 159.872 601.793 163.514Z" fill="white"/>
	</symbol>

<symbol id="footer-logo" width="262" height="86" viewBox="0 0 262 86" fill="currentColor" xmlns="http://www.w3.org/2000/svg">
	<g style="mix-blend-mode:hard-light" filter="url(#filter0_f_2139_19)">
		<path fill-rule="evenodd" clip-rule="evenodd" d="M190.99 4.76644C188.427 6.12302 187.469 7.45169 185.942 11.7696L184.971 14.5177L173.649 14.43C167.325 14.3811 160.535 14.8805 158.268 15.5613C155.006 16.5411 153.59 16.5231 151.054 15.4706C146.931 13.7582 101.364 13.7163 97.0445 15.4207C94.8771 16.276 93.2923 16.267 90.6209 15.3829C88.6702 14.737 82.4713 14.2027 76.845 14.1957C68.0124 14.1838 66.6156 13.9575 66.6156 12.5391C66.6156 9.3515 64.0097 7.26729 59.0755 6.50776C51.1963 5.29471 47.9224 6.25559 45.1992 10.5805L42.828 14.3472L29.5364 14.6742C16.6494 14.9911 16.1304 15.0888 12.4916 17.8748C7.81878 21.4521 4 29.3484 4 35.4346C4 38.1099 4.98825 42.049 6.45074 45.1978C8.51472 49.6433 9.65012 50.8155 13.6488 52.6306C17.6118 54.4297 19.7921 54.7247 26.847 54.4158C43.3689 53.6931 55.4337 53.9124 74.5693 55.2859C85.2322 56.0514 94.0778 56.7661 94.2259 56.8747C94.375 56.9844 93.3719 59.4932 91.9989 62.4516C86.0246 75.3177 90.8645 81.5135 105.736 80.0393C108.554 79.7602 114.885 79.9386 119.806 80.435C124.727 80.9324 130.767 81.5414 133.228 81.7886C136.13 82.0807 139.852 81.5285 143.825 80.2157C149.567 78.3189 150.309 78.286 155.756 79.6904C158.949 80.5148 163.576 81.048 166.037 80.8776C181.522 79.7991 187.539 78.8552 190.641 77.0211L193.988 75.0406L196.666 77.5474C198.837 79.5798 200.753 80.1788 206.8 80.7171C222.297 82.0966 243.059 80.7171 248.291 77.9611C253.835 75.0406 255.962 68.4829 253.031 63.3437C250.941 59.6786 251.194 58.8742 254.771 57.8187C257.301 57.0721 258.002 56.3245 258.002 54.3729C258.002 52.0694 257.531 51.8182 251.777 51.0447C246.049 50.2762 245.196 50.4188 241.089 52.8309C238.634 54.2732 236.626 56.0325 236.626 56.7412C236.626 58.4596 229.761 66.1994 229.708 64.5398C229.636 62.2771 232.502 57.6373 235.181 55.6806C237.532 53.9632 237.655 53.5466 236.54 51.0926C235.865 49.6074 235.049 48.3525 234.726 48.3047C227.839 47.27 223.533 47.6916 217.498 49.9912L210.798 52.5448L207.556 49.126C205.774 47.2451 203.679 45.4998 202.901 45.2476C201.708 44.8609 201.82 43.0936 203.621 33.8826C208.421 9.32858 208.579 6.17086 205.058 5.17211C200.203 3.7956 193.206 3.59425 190.99 4.76644ZM112.349 63.1702C112.349 64.482 107.452 68.7341 106.75 68.0304C105.784 67.0606 109.209 62.3469 110.881 62.3469C111.688 62.3469 112.349 62.7177 112.349 63.1702Z" fill="#333232"/>
		<path fill-rule="evenodd" d="M184.689 27.1215C182.252 38.7347 180.838 47.6137 181.345 48.1211C181.829 48.6045 183.955 48.8567 186.07 48.6823L189.915 48.3653L194.133 28.9286C196.453 18.2384 198.371 8.93171 198.396 8.24594C198.426 7.41664 196.848 7 193.676 7H188.911L184.689 27.1215ZM45.3315 13.4789C44.7123 17.6035 44.4271 17.9643 41.7797 17.9643C40.1494 17.9643 38.8961 18.5045 38.8881 19.2102C38.8811 19.896 38.6039 21.4659 38.2739 22.6989C37.7633 24.6027 38.0635 24.9416 40.2561 24.9416C42.6253 24.9416 42.7928 25.2117 42.2673 28.181C41.9522 29.9622 41.2931 32.9904 40.8026 34.9091C38.2509 44.8866 40.5812 48.8637 48.9789 48.8637C52.9554 48.8637 53.7133 48.5397 54.2278 46.621C55.4233 42.1595 54.9826 40.8896 52.2355 40.8896C49.7128 40.8896 49.64 40.7312 50.2822 36.6534C51.7449 27.3527 52.7849 24.9416 55.3346 24.9416C57.9999 24.9416 58.286 24.6306 59.2243 20.7054C59.8246 18.1926 59.6381 17.9643 56.9738 17.9643C54.1271 17.9643 54.0862 17.8895 54.9367 14.2265C55.4143 12.1712 55.8162 10.1517 55.8291 9.74107C55.8421 9.33041 53.6375 8.99351 50.9283 8.99351H46.0045L45.3315 13.4789ZM15.4697 18.3799C8.93463 21.2964 5 27.7385 5 35.5221C5 44.3703 9.70142 48.8637 18.9597 48.8637C25.1518 48.8637 29.3776 46.8233 31.9621 42.5851C34.6294 38.2134 34.4908 37.8994 29.8881 37.8994C27.2866 37.8994 24.7948 38.6858 22.8564 40.1181C20.0715 42.1764 19.6586 42.2283 17.1698 40.8318C15.6941 40.0035 14.341 38.5722 14.1635 37.6502C13.8803 36.178 15.1477 35.9408 24.6263 35.6916L35.4121 35.4075L35.6853 31.4205C36.4043 20.9077 25.5287 13.8926 15.4697 18.3799ZM69.3142 18.3799C62.7791 21.2964 58.8444 27.7385 58.8444 35.5221C58.8444 41.1069 60.9982 45.389 64.7942 47.3516C68.5783 49.3072 77.0618 49.2913 80.8748 47.3197C83.5311 45.9472 87.7469 40.6345 87.7569 38.6469C87.7589 38.2363 85.5174 37.8994 82.7753 37.8994C80.0332 37.8994 77.7897 38.3579 77.7897 38.9171C77.7897 39.4772 76.6859 40.4381 75.3378 41.0521C73.3744 41.9472 72.3813 41.8386 70.3522 40.5099C68.9582 39.5969 67.8185 38.2024 67.8185 37.412C67.8185 36.2647 69.9932 35.9158 78.5375 35.6906L89.2566 35.4075L89.5298 31.4205C90.2487 20.9077 79.3731 13.8926 69.3142 18.3799ZM107.454 18.5095C105.882 19.3767 104.712 19.583 104.712 18.9929C104.712 18.4268 102.693 17.9643 100.225 17.9643C97.757 17.9643 95.7318 18.3012 95.7259 18.7119C95.7189 19.1225 94.4037 25.72 92.8033 33.3721C91.2029 41.0242 90.1131 47.6397 90.3813 48.0742C90.6505 48.5088 92.6497 48.8637 94.8245 48.8637C99.3653 48.8637 99.7123 48.3045 101.649 37.8834C103.274 29.1329 105.369 26.4816 110.659 26.4816C114.97 26.4816 115.343 26.0201 115.935 19.9578C116.142 17.8427 115.727 17.431 113.187 17.2317C111.542 17.1031 108.963 17.6782 107.454 18.5095ZM133.302 17.6264C132.939 17.9882 129.612 18.3241 125.907 18.374L119.17 18.4627L116.466 31.4205C112.782 49.075 112.767 48.8637 117.695 48.8637C122.412 48.8637 122.875 48.1211 125.12 36.9873C126.646 29.42 129.428 24.9416 132.605 24.9416C136.064 24.9416 136.391 26.7766 134.522 35.7135C131.846 48.5078 131.896 48.8627 136.37 48.8696L140.11 48.8756L137.464 50.2561C136.008 51.0147 133.092 52.1888 130.983 52.8646C126.126 54.4216 122.607 57.053 115.333 64.5705C108.736 71.3883 100.759 76.2385 97.7261 75.2757C95.1346 74.4533 95.0039 67.7512 97.4848 62.889C100.771 56.446 107.703 53.672 107.703 58.8003C107.703 61.343 108.887 61.3779 111.128 58.903C115.109 54.5063 109.635 50.289 103.838 53.2853C93.4355 58.6628 86.2293 73.1944 91.9717 77.2143C95.8904 79.9594 100.644 78.9019 108.817 73.4685C111.394 71.7551 111.421 71.7621 110.98 74.0646C110.714 75.4571 111.188 76.9383 112.158 77.7426C113.531 78.8819 114.274 78.8371 116.974 77.4476C118.73 76.5435 121.176 75.0703 122.411 74.1733C124.605 72.5784 124.654 72.6103 124.654 75.6195C124.654 81.9798 131.419 81.8572 139.958 75.3414L144.206 72.101L143.789 74.9348C143.095 79.6674 146.116 78.3427 149.498 72.4339C152.129 67.8389 161.385 57.8345 163.006 57.8345C163.308 57.8345 161.532 61.666 159.061 66.3497C154.009 75.9226 153.739 77.2562 156.541 78.7553C160.392 80.8156 167.414 77.8293 174.667 71.0474C177.323 68.5645 179.496 67.0215 179.496 67.6186C179.496 70.2022 176.977 73.8762 174.838 74.4125C172.173 75.0813 171.913 76.0282 173.936 77.7067C175.878 79.3175 181.468 76.397 188.447 70.1254C199.043 60.6014 202.281 52.9613 197.222 49.4189C193.963 47.1363 193.651 47.4263 194.193 52.2337C194.464 54.6359 194.161 58.1883 193.521 60.128C192.377 63.5937 183.874 72.5107 182.767 71.4053C182.457 71.0943 182.657 70.269 183.212 69.5702C183.766 68.8715 184.779 65.8334 185.461 62.8182C186.143 59.803 187.363 56.2805 188.174 54.9907L189.647 52.6454L185.32 53.3192C179.232 54.2671 177.502 54.8402 177.502 55.9077C177.502 56.4191 178.447 56.8377 179.603 56.8377C181.108 56.8377 181.532 57.2843 181.098 58.4146C180.765 59.2817 180.493 60.4131 180.493 60.9284C180.493 63.7562 167.766 74.7673 162.794 76.2415C160.918 76.7977 160.555 76.5286 160.572 74.5969C160.6 71.6375 163.599 65.041 167.481 59.4024C173.451 50.7266 170.27 49.3142 161.049 56.5486C156.284 60.2865 155.421 60.6991 156.811 58.576C159.064 55.1353 159.033 52.8507 156.733 52.8507C155.517 52.8507 154.119 54.5362 152.54 57.9062C148.18 67.2109 131.651 80.5744 129.958 76.1638C129.131 74.0118 131.045 68.3353 134.96 61.3231C137.57 56.6493 138.878 55.2738 140.949 55.0276C143.931 54.6728 144.228 54.0737 142.223 52.462C141.062 51.53 141.227 49.7089 143.272 40.8896C146.763 25.8387 146.767 22.36 143.294 19.3737C140.628 17.0802 134.858 16.0715 133.302 17.6264ZM159.588 18.2693C156.504 19.3318 151.576 24.7522 151.576 27.0826C151.576 27.5501 153.496 27.9318 155.842 27.9318C158.873 27.9318 160.601 27.3547 161.815 25.9383C163.847 23.5661 167.777 23.3338 169.56 25.4818C171.507 27.8272 169.598 28.9894 162.313 29.8925C158.767 30.332 154.923 31.1952 153.771 31.8112C148.098 34.8473 146.667 43.224 151.213 46.7974C154.101 49.069 161.259 49.6212 164.605 47.832C165.934 47.1203 166.533 47.1203 166.533 47.832C166.533 48.3992 168.494 48.8637 170.891 48.8637H175.248L175.806 44.6275C176.114 42.2971 177.093 37.0063 177.983 32.8688C179.191 27.2521 179.336 24.6525 178.558 22.6042C176.675 17.6553 167.478 15.5531 159.588 18.2693ZM25.755 27.1843C26.0352 28.6595 25.3063 28.9286 21.0267 28.9286C18.2447 28.9286 15.9683 28.502 15.9683 27.9817C15.9683 24.8359 25.1677 24.0864 25.755 27.1843ZM79.5995 27.1843C79.8796 28.6595 79.1507 28.9286 74.8711 28.9286C72.0892 28.9286 69.8127 28.502 69.8127 27.9817C69.8127 24.8359 79.0122 24.0864 79.5995 27.1843ZM167.846 36.6534C166.131 41.4877 159.307 44.0045 157.894 40.3245C157.03 38.0718 158.908 36.6425 163.771 35.851C166.113 35.4703 168.127 35.1025 168.247 35.0337C168.367 34.9649 168.186 35.6936 167.846 36.6534ZM223.033 50.3508C221.477 51.1622 218.336 52.3732 216.053 53.0431C210.389 54.7027 200.403 64.6642 197.955 71.0983C196.288 75.48 196.268 76.0252 197.72 77.4755C199.061 78.8161 199.77 78.871 202.292 77.8264C203.933 77.1466 206.052 75.7342 206.999 74.6886C209.431 72.0013 210.407 72.3193 210.407 75.797C210.407 78.0307 211.042 79.0982 212.864 79.9285C214.915 80.8625 216.179 80.6242 220.495 78.4892C225.299 76.1129 225.837 76.0402 228.029 77.4755C229.685 78.561 231.784 78.864 235.072 78.4932C243.488 77.5453 247.902 69.6819 243.311 63.815C242.239 62.4444 241.351 60.2645 241.339 58.9718C241.319 56.8586 241.679 56.6623 244.875 57.0351C247.576 57.35 248.667 57.0131 249.405 55.6336C250.131 54.277 249.987 53.668 248.836 53.2265C246.079 52.1689 242.583 53.7587 239.677 57.3909C229.138 70.563 218.586 79.3673 216.199 76.9811C214.567 75.3504 216.027 70.0188 220.21 62.3199C223.28 56.6693 224.511 55.2828 226.676 55.0276C229.6 54.6827 230.209 53.3929 227.873 52.4968C227.031 52.1739 226.648 51.2688 226.983 50.3967C227.719 48.4779 226.65 48.466 223.033 50.3508ZM132.029 58.0836C128.053 65.8882 118.644 76.08 116.964 74.4015C116.66 74.0975 117.602 71.4152 119.057 68.4419C121.817 62.8013 129.471 54.8442 132.136 54.8442C133.508 54.8442 133.496 55.205 132.029 58.0836ZM216.803 59.807C214.102 64.7679 205.035 74.7793 203.244 74.7793C200.414 74.7793 207.047 63.1442 212.573 58.4166C218.628 53.2364 220.114 53.7248 216.803 59.807ZM239.162 67.3505C241.144 71.6953 240.62 74.7145 237.696 75.8259C234.711 76.9602 232.097 76.3871 230.28 74.1982C229.242 72.9473 229.677 72.0392 232.886 68.7539C235.003 66.586 237.022 64.8117 237.371 64.8117C237.721 64.8117 238.526 65.954 239.162 67.3505Z" fill="white"/>
	</g>
	<defs>
	<filter id="filter0_f_2139_19" x="0" y="0" width="262.002" height="85.8647" filterUnits="userSpaceOnUse" color-interpolation-filters="sRGB">
	<feFlood flood-opacity="0" result="BackgroundImageFix"/>
	<feBlend mode="normal" in="SourceGraphic" in2="BackgroundImageFix" result="shape"/>
	<feGaussianBlur stdDeviation="2" result="effect1_foregroundBlur_2139_19"/>
	</filter>
	</defs>
</symbol>

<symbol id="reset" width="42" height="43" viewBox="0 0 42 43" fill="currentColor" xmlns="http://www.w3.org/2000/svg">
<path d="M37.6221 1.01239C38.2539 1.01252 38.8683 1.27291 39.3271 1.74969C39.7873 2.22788 40.0518 2.88477 40.0518 3.57684L40.04 3.83466C39.9911 4.34508 39.7977 4.82529 39.4902 5.21552L39.3271 5.40302L24.6367 20.6306L23.9678 21.3249L24.6367 22.0192L39.3271 37.2468L39.3301 37.2497C39.5582 37.4849 39.7416 37.7666 39.8672 38.0798C39.9929 38.3933 40.0576 38.7312 40.0576 39.0729C40.0576 39.4147 39.9929 39.7526 39.8672 40.0661C39.7415 40.3795 39.5584 40.6618 39.3301 40.8972L40.0469 41.5934L39.3291 40.8972L39.3242 40.903C39.0977 41.1403 38.8298 41.3265 38.5381 41.4528C38.2466 41.579 37.9354 41.6432 37.6221 41.6432C37.3086 41.6432 36.9967 41.579 36.7051 41.4528C36.4862 41.3581 36.2811 41.2294 36.0967 41.071L35.9189 40.903L35.917 40.9011L21.2607 25.6374L20.54 24.8864L19.8184 25.6374L5.16211 40.9011L5.16016 40.903C4.93363 41.1403 4.66579 41.3265 4.37402 41.4528C4.08253 41.579 3.77134 41.6432 3.45801 41.6432C3.14447 41.6432 2.83269 41.5791 2.54102 41.4528C2.32214 41.3581 2.1171 41.2294 1.93262 41.071L1.75586 40.903L1.75 40.8972L1.58691 40.7116C1.43325 40.5184 1.30614 40.3011 1.21191 40.0661C1.08623 39.7526 1.02148 39.4147 1.02148 39.0729C1.02151 38.7312 1.08622 38.3933 1.21191 38.0798C1.30618 37.8448 1.4332 37.6275 1.58691 37.4343L1.75 37.2497L1.75195 37.2468L16.4424 22.0192L17.1123 21.3249L16.4424 20.6306L1.75195 5.40302H1.75293C1.29275 4.92488 1.02741 4.26889 1.02734 3.57684L1.04004 3.31903C1.09705 2.72315 1.35021 2.16812 1.75293 1.74969C2.1545 1.33257 2.67461 1.08049 3.22168 1.02411L3.45801 1.01239C4.0107 1.01247 4.54986 1.21168 4.9834 1.58075L5.16309 1.74969L19.8184 17.0124L20.54 17.7634L21.2607 17.0124L35.916 1.74969C36.375 1.2728 36.9901 1.01239 37.6221 1.01239Z" fill="#373737" stroke="#202020" stroke-width="2"/>
</symbol>


</svg>